<svg width="29" height="29" viewBox="0 0 29 29" fill="none" xmlns="http://www.w3.org/2000/svg">
<path d="M11.0261 25.4958L0.84586 15.3458C0.725027 15.225 0.639235 15.0941 0.588485 14.9531C0.537735 14.8122 0.512763 14.6611 0.513569 14.5C0.513569 14.3389 0.538944 14.1878 0.589694 14.0469C0.640444 13.9059 0.725833 13.775 0.84586 13.6542L11.0261 3.47396C11.308 3.19201 11.6604 3.05104 12.0834 3.05104C12.5063 3.05104 12.8688 3.20208 13.1709 3.50417C13.4729 3.80625 13.624 4.15868 13.624 4.56146C13.624 4.96423 13.4729 5.31667 13.1709 5.61875L4.28961 14.5L13.1709 23.3812C13.4528 23.6632 13.5938 24.0108 13.5938 24.424C13.5938 24.8373 13.4427 25.1946 13.1407 25.4958C12.8386 25.7979 12.4861 25.949 12.0834 25.949C11.6806 25.949 11.3282 25.7979 11.0261 25.4958Z" fill="black"/>
</svg>
