<svg width="16" height="17" viewBox="0 0 16 17" fill="none" xmlns="http://www.w3.org/2000/svg">
<g clip-path="url(#clip0_8_201)">
<path d="M8 16.5C8.53043 16.5 9.03914 16.2893 9.41421 15.9142C9.78929 15.5391 10 15.0304 10 14.5H6C6 15.0304 6.21071 15.5391 6.58579 15.9142C6.96086 16.2893 7.46957 16.5 8 16.5ZM8 2.41801L7.203 2.57901C6.29896 2.76321 5.48633 3.25411 4.90265 3.96863C4.31897 4.68315 4.0001 5.57739 4 6.50001C4 7.12801 3.866 8.697 3.541 10.242C3.381 11.009 3.165 11.808 2.878 12.5H13.122C12.835 11.808 12.62 11.01 12.459 10.242C12.134 8.697 12 7.12801 12 6.50001C11.9997 5.57756 11.6807 4.68355 11.097 3.96924C10.5134 3.25493 9.70087 2.76417 8.797 2.58001L8 2.41801ZM14.22 12.5C14.443 12.947 14.701 13.301 15 13.5H1C1.299 13.301 1.557 12.947 1.78 12.5C2.68 10.7 3 7.38001 3 6.50001C3 4.08001 4.72 2.06001 7.005 1.59901C6.99104 1.45996 7.00638 1.31953 7.05003 1.18678C7.09368 1.05403 7.16467 0.931895 7.25842 0.828263C7.35217 0.724632 7.4666 0.6418 7.59433 0.58511C7.72206 0.52842 7.86026 0.49913 8 0.49913C8.13974 0.49913 8.27794 0.52842 8.40567 0.58511C8.5334 0.6418 8.64783 0.724632 8.74158 0.828263C8.83533 0.931895 8.90632 1.05403 8.94997 1.18678C8.99362 1.31953 9.00896 1.45996 8.995 1.59901C10.1253 1.82891 11.1414 2.44237 11.8712 3.33551C12.6011 4.22865 12.9999 5.34658 13 6.50001C13 7.38001 13.32 10.7 14.22 12.5Z" fill="#F1F1F1"/>
</g>
<defs>
<clipPath id="clip0_8_201">
<rect width="16" height="16" fill="white" transform="translate(0 0.5)"/>
</clipPath>
</defs>
</svg>
