<svg width="25" height="25" viewBox="0 0 25 25" fill="none" xmlns="http://www.w3.org/2000/svg">
<g clip-path="url(#clip0_8_569)">
<path d="M16.5948 7.61907C16.5059 7.61958 16.4178 7.60255 16.3355 7.56894C16.2532 7.53533 16.1784 7.48581 16.1153 7.42321L11.0972 2.40513C10.9709 2.27616 10.901 2.10231 10.9029 1.92182C10.9048 1.74133 10.9784 1.56899 11.1073 1.44271C11.2363 1.31643 11.4102 1.24655 11.5906 1.24845C11.7711 1.25035 11.9435 1.32387 12.0698 1.45284L17.0946 6.47092C17.1875 6.56573 17.2505 6.68584 17.2755 6.81622C17.3006 6.94659 17.2867 7.08147 17.2355 7.20398C17.1843 7.32649 17.0982 7.4312 16.9878 7.50503C16.8775 7.57885 16.7478 7.61852 16.6151 7.61907H16.5948ZM8.59829 15.6156C8.59881 15.5267 8.58177 15.4386 8.54816 15.3563C8.51455 15.274 8.46503 15.1992 8.40243 15.1361L3.38435 10.118C3.25717 9.9908 3.08468 9.91936 2.90483 9.91936C2.72497 9.91936 2.55249 9.9908 2.42531 10.118C2.29813 10.2452 2.22668 10.4176 2.22668 10.5975C2.22668 10.7774 2.29813 10.9498 2.42531 11.077L7.44339 16.1221C7.50618 16.1854 7.58087 16.2357 7.66318 16.27C7.74548 16.3042 7.83375 16.3219 7.92291 16.3219C8.01207 16.3219 8.10035 16.3042 8.18265 16.27C8.26495 16.2357 8.33965 16.1854 8.40243 16.1221C8.46836 16.0558 8.51981 15.9766 8.55352 15.8894C8.58723 15.8022 8.60248 15.709 8.59829 15.6156ZM15.3994 23.5513H2.61442C2.50806 23.5553 2.40227 23.5341 2.30568 23.4894C2.20908 23.4447 2.12441 23.3778 2.05857 23.2942C1.99273 23.2106 1.94758 23.1126 1.92681 23.0082C1.90604 22.9038 1.91022 22.796 1.93903 22.6936L2.70221 19.9921C2.74307 19.846 2.83191 19.7179 2.95443 19.6284C3.07695 19.539 3.22601 19.4934 3.3776 19.499H14.6362C14.7878 19.4934 14.9368 19.539 15.0594 19.6284C15.1819 19.7179 15.2707 19.846 15.3116 19.9921L16.0748 22.6936C16.1021 22.7938 16.1059 22.8989 16.086 23.0008C16.0661 23.1027 16.023 23.1986 15.9599 23.2812C15.895 23.3678 15.8102 23.4376 15.7126 23.4846C15.6151 23.5317 15.5076 23.5545 15.3994 23.5513ZM3.49916 22.2006H14.5011L14.0959 20.8498H3.87738L3.49916 22.2006ZM22.9501 19.1208L13.4948 9.66547L15.0887 8.07158L10.3948 3.37768L4.3569 9.41558L9.03729 14.096L10.6244 12.5156L20.0798 21.9709C20.4597 22.3504 20.9747 22.5635 21.5116 22.5635C22.0485 22.5635 22.5635 22.3504 22.9434 21.9709C23.3196 21.5925 23.5313 21.0809 23.5326 20.5473C23.5339 20.0136 23.3246 19.501 22.9501 19.1208ZM6.26147 9.41558L10.3948 5.31602L13.1706 8.09184L9.03729 12.2184L6.26147 9.41558ZM21.9911 21.0321C21.8646 21.1579 21.6934 21.2285 21.515 21.2285C21.3365 21.2285 21.1654 21.1579 21.0388 21.0321L11.5835 11.5768L12.5358 10.6245L21.9911 20.0799C22.1169 20.2064 22.1875 20.3776 22.1875 20.556C22.1875 20.7344 22.1169 20.9056 21.9911 21.0321Z" fill="#222515"/>
</g>
<defs>
<clipPath id="clip0_8_569">
<rect width="24.3137" height="24.3137" fill="white" transform="translate(0.588257 0.588257)"/>
</clipPath>
</defs>
</svg>
