<svg width="14" height="14" viewBox="0 0 14 14" fill="none" xmlns="http://www.w3.org/2000/svg">
<g clip-path="url(#clip0_8_225)">
<path d="M9.21665 4.04833C9.16547 4.04863 9.11474 4.03882 9.06736 4.01946C9.01997 4.00011 8.97688 3.9716 8.94054 3.93555L6.0511 1.04611C5.97838 0.971849 5.93815 0.871744 5.93924 0.767818C5.94034 0.663891 5.98267 0.564656 6.05693 0.491943C6.13119 0.419229 6.2313 0.378994 6.33522 0.380088C6.43915 0.381182 6.53838 0.423515 6.6111 0.497776L9.50443 3.38722C9.55795 3.44181 9.59418 3.51097 9.60861 3.58604C9.62304 3.66112 9.61502 3.73878 9.58556 3.80932C9.5561 3.87986 9.5065 3.94015 9.44296 3.98266C9.37943 4.02517 9.30477 4.04802 9.22832 4.04833H9.21665ZM4.61221 8.65277C4.6125 8.60159 4.60269 8.55086 4.58334 8.50348C4.56399 8.4561 4.53547 8.413 4.49943 8.37666L1.60999 5.48722C1.53676 5.41399 1.43744 5.37285 1.33388 5.37285C1.23031 5.37285 1.13099 5.41399 1.05776 5.48722C0.984535 5.56045 0.943395 5.65977 0.943395 5.76333C0.943395 5.86689 0.984535 5.96621 1.05776 6.03944L3.94721 8.94444C3.98336 8.98089 4.02637 9.00982 4.07376 9.02957C4.12115 9.04931 4.17198 9.05947 4.22332 9.05947C4.27466 9.05947 4.32549 9.04931 4.37288 9.02957C4.42027 9.00982 4.46328 8.98089 4.49943 8.94444C4.53739 8.90628 4.56701 8.86065 4.58643 8.81044C4.60584 8.76024 4.61462 8.70655 4.61221 8.65277ZM8.52832 13.2222H1.16665C1.10541 13.2245 1.0445 13.2123 0.98888 13.1866C0.933259 13.1608 0.884505 13.1223 0.846594 13.0742C0.808682 13.026 0.782686 12.9696 0.770724 12.9095C0.758763 12.8494 0.761175 12.7873 0.777764 12.7283L1.21721 11.1728C1.24073 11.0887 1.29189 11.0149 1.36244 10.9634C1.43298 10.9119 1.51881 10.8857 1.6061 10.8889H8.08888C8.17616 10.8857 8.26199 10.9119 8.33254 10.9634C8.40308 11.0149 8.45424 11.0887 8.47776 11.1728L8.91721 12.7283C8.93294 12.786 8.93516 12.8465 8.92369 12.9052C8.91222 12.9639 8.88738 13.0191 8.8511 13.0667C8.81371 13.1166 8.76487 13.1568 8.70869 13.1838C8.65251 13.2109 8.59065 13.2241 8.52832 13.2222ZM1.6761 12.4444H8.0111L7.77776 11.6667H1.89388L1.6761 12.4444ZM12.8761 10.6711L7.43165 5.22666L8.34943 4.30889L5.64665 1.60611L2.16999 5.08278L4.86499 7.77778L5.77887 6.86778L11.2233 12.3122C11.4421 12.5307 11.7386 12.6534 12.0478 12.6534C12.3569 12.6534 12.6535 12.5307 12.8722 12.3122C13.0888 12.0943 13.2108 11.7997 13.2115 11.4925C13.2122 11.1852 13.0917 10.89 12.8761 10.6711ZM3.26665 5.08278L5.64665 2.72222L7.24499 4.32055L4.86499 6.69666L3.26665 5.08278ZM12.3239 11.7717C12.251 11.8441 12.1524 11.8848 12.0497 11.8848C11.947 11.8848 11.8484 11.8441 11.7755 11.7717L6.3311 6.32722L6.87943 5.77889L12.3239 11.2233C12.3963 11.2962 12.437 11.3948 12.437 11.4975C12.437 11.6002 12.3963 11.6988 12.3239 11.7717Z" fill="black"/>
</g>
<defs>
<clipPath id="clip0_8_225">
<rect width="14" height="14" fill="white"/>
</clipPath>
</defs>
</svg>
