<svg width="15" height="23" viewBox="0 0 15 23" fill="none" xmlns="http://www.w3.org/2000/svg">
<g clip-path="url(#clip0_8_372)">
<path d="M7.94218 0L8.09634 0.523981V15.7287L7.94218 15.8826L0.884327 11.7107L7.94218 0Z" fill="#343434"/>
<path d="M7.94214 0L15 11.7107L7.94214 15.8826V8.50272V0Z" fill="#8C8C8C"/>
<path d="M7.94218 17.2189L8.02905 17.3248V22.7411L7.94218 22.9949L0.880135 13.0492L7.94218 17.2189Z" fill="#3C3C3B"/>
<path d="M7.94214 22.9948V17.2188L15 13.0491L7.94214 22.9948Z" fill="#8C8C8C"/>
<path d="M7.94217 15.8826L0.884423 11.7108L7.94217 8.50278V15.8826Z" fill="#141414"/>
<path d="M14.9999 11.7108L7.94219 15.8826V8.50278L14.9999 11.7108Z" fill="#393939"/>
</g>
<defs>
<clipPath id="clip0_8_372">
<rect width="14.1199" height="23" fill="white" transform="matrix(-1 0 0 1 15 0)"/>
</clipPath>
</defs>
</svg>
