<svg width="22" height="22" viewBox="0 0 22 22" fill="none" xmlns="http://www.w3.org/2000/svg">
<path d="M15.8125 9.625V11.6875C15.8125 12.9639 15.3055 14.1879 14.403 15.0905C13.5004 15.993 12.2764 16.5 11 16.5C9.72365 16.5 8.49957 15.993 7.59705 15.0905C6.69453 14.1879 6.1875 12.9639 6.1875 11.6875V9.625H4.8125V11.6875C4.81322 13.209 5.3745 14.6769 6.38909 15.8107C7.40368 16.9445 8.80044 17.6647 10.3125 17.8338V19.25H7.5625V20.625H14.4375V19.25H11.6875V17.8338C13.1996 17.6647 14.5963 16.9445 15.6109 15.8107C16.6255 14.6769 17.1868 13.209 17.1875 11.6875V9.625H15.8125Z" fill="white"/>
<path d="M11 15.125C11.9117 15.125 12.786 14.7628 13.4307 14.1182C14.0753 13.4735 14.4375 12.5992 14.4375 11.6875V4.8125C14.4375 3.90082 14.0753 3.02648 13.4307 2.38182C12.786 1.73716 11.9117 1.375 11 1.375C10.0883 1.375 9.21398 1.73716 8.56932 2.38182C7.92466 3.02648 7.5625 3.90082 7.5625 4.8125V11.6875C7.5625 12.5992 7.92466 13.4735 8.56932 14.1182C9.21398 14.7628 10.0883 15.125 11 15.125ZM8.9375 4.8125C8.9375 4.26549 9.1548 3.74089 9.54159 3.35409C9.92839 2.9673 10.453 2.75 11 2.75C11.547 2.75 12.0716 2.9673 12.4584 3.35409C12.8452 3.74089 13.0625 4.26549 13.0625 4.8125V11.6875C13.0625 12.2345 12.8452 12.7591 12.4584 13.1459C12.0716 13.5327 11.547 13.75 11 13.75C10.453 13.75 9.92839 13.5327 9.54159 13.1459C9.1548 12.7591 8.9375 12.2345 8.9375 11.6875V4.8125Z" fill="white"/>
</svg>
