<svg width="18" height="19" viewBox="0 0 18 19" fill="none" xmlns="http://www.w3.org/2000/svg">
<path d="M9.22114 7.2609C8.7595 7.21531 8.29505 7.31352 7.89138 7.54209C7.48771 7.77066 7.16455 8.11841 6.96616 8.53773C6.76777 8.95706 6.70383 9.42746 6.78311 9.88452C6.86238 10.3416 7.081 10.763 7.40902 11.091C7.73704 11.419 8.15843 11.6376 8.61549 11.7169C9.07256 11.7962 9.54295 11.7322 9.96228 11.5339C10.3816 11.3355 10.7294 11.0123 10.9579 10.6086C11.1865 10.205 11.2847 9.74051 11.2391 9.27887C11.1871 8.76136 10.9578 8.27774 10.5901 7.90996C10.2223 7.54218 9.73865 7.31288 9.22114 7.2609ZM14.6387 9.5C14.6373 9.74457 14.6193 9.98876 14.5849 10.2309L16.1743 11.4775C16.2436 11.5349 16.2902 11.615 16.306 11.7035C16.3217 11.792 16.3056 11.8832 16.2605 11.9609L14.7568 14.5625C14.7112 14.6395 14.6398 14.6979 14.5553 14.7274C14.4708 14.7569 14.3786 14.7557 14.2949 14.7239L12.7164 14.0882C12.6293 14.0536 12.535 14.0411 12.442 14.0518C12.3489 14.0625 12.2599 14.0962 12.1831 14.1498C11.9422 14.3157 11.689 14.463 11.4258 14.5906C11.343 14.6308 11.2715 14.6908 11.2174 14.7653C11.1633 14.8397 11.1284 14.9263 11.1157 15.0174L10.8791 16.7011C10.8636 16.79 10.8176 16.8707 10.7492 16.9295C10.6807 16.9883 10.5939 17.0215 10.5036 17.0234H7.49638C7.40762 17.0219 7.32204 16.9902 7.25373 16.9335C7.18541 16.8768 7.13844 16.7985 7.12056 16.7116L6.88431 15.0304C6.87104 14.9383 6.83522 14.8509 6.78002 14.7759C6.72482 14.701 6.65195 14.6408 6.5679 14.6008C6.30501 14.4739 6.05272 14.3261 5.81345 14.1589C5.73684 14.1056 5.64818 14.0722 5.55544 14.0617C5.46271 14.0512 5.36882 14.064 5.28224 14.0988L3.70407 14.7341C3.62044 14.7659 3.52825 14.7672 3.44374 14.7378C3.35924 14.7083 3.28784 14.65 3.24212 14.573L1.73849 11.9715C1.69328 11.8938 1.67713 11.8025 1.6929 11.714C1.70867 11.6255 1.75535 11.5454 1.82462 11.4881L3.16794 10.4334C3.24154 10.375 3.29938 10.2991 3.33621 10.2127C3.37305 10.1262 3.38771 10.0319 3.37888 9.9384C3.36622 9.7918 3.35849 9.64555 3.35849 9.49895C3.35849 9.35234 3.36587 9.2082 3.37888 9.06477C3.38675 8.97179 3.37136 8.87831 3.33411 8.79276C3.29686 8.70721 3.23891 8.63227 3.16548 8.57469L1.82286 7.52C1.75472 7.46238 1.70902 7.38261 1.69379 7.29468C1.67855 7.20674 1.69475 7.11625 1.73954 7.03906L3.24318 4.4375C3.28884 4.3605 3.36022 4.3021 3.44473 4.27258C3.52924 4.24306 3.62146 4.24432 3.70513 4.27613L5.28364 4.91176C5.37069 4.94642 5.46498 4.95894 5.55806 4.9482C5.65113 4.93746 5.74009 4.9038 5.81697 4.85023C6.05787 4.68434 6.31102 4.53696 6.57423 4.40937C6.65698 4.36916 6.72855 4.30918 6.78263 4.23475C6.83671 4.16031 6.87163 4.07371 6.88431 3.98258L7.12091 2.29895C7.13645 2.21003 7.18239 2.12927 7.25087 2.07047C7.31936 2.01167 7.40613 1.97847 7.49638 1.97656H10.5036C10.5924 1.9781 10.678 2.00982 10.7463 2.0665C10.8146 2.12319 10.8616 2.20145 10.8795 2.2884L11.1157 3.96957C11.129 4.0617 11.1648 4.14913 11.22 4.22408C11.2752 4.29903 11.3481 4.35918 11.4321 4.39918C11.695 4.52608 11.9473 4.67386 12.1866 4.84109C12.2632 4.8944 12.3518 4.9278 12.4446 4.93829C12.5373 4.94879 12.6312 4.93604 12.7178 4.90121L14.2959 4.26594C14.3796 4.23409 14.4718 4.23278 14.5563 4.26223C14.6408 4.29169 14.7122 4.35002 14.7579 4.42695L16.2615 7.02852C16.3067 7.10624 16.3229 7.19749 16.3071 7.28601C16.2914 7.37453 16.2447 7.45459 16.1754 7.51191L14.8321 8.5666C14.7582 8.62483 14.7 8.70062 14.6628 8.78708C14.6257 8.87353 14.6108 8.9679 14.6194 9.0616C14.631 9.20715 14.6387 9.3534 14.6387 9.5Z" stroke="#F1F1F1" stroke-width="1.125" stroke-linecap="round" stroke-linejoin="round"/>
</svg>
