<svg width="12" height="13" viewBox="0 0 12 13" fill="none" xmlns="http://www.w3.org/2000/svg">
<g clip-path="url(#clip0_8_518)">
<path d="M11.5 6.78219L10.28 5.39219L10.45 3.55219L8.645 3.14218L7.7 1.55219L6 2.28219L4.3 1.55219L3.355 3.14218L1.55 3.54719L1.72 5.38719L0.5 6.78219L1.72 8.17218L1.55 10.0172L3.355 10.4272L4.3 12.0172L6 11.2822L7.7 12.0122L8.645 10.4222L10.45 10.0122L10.28 8.17218L11.5 6.78219ZM5 9.28219L3 7.28219L3.705 6.57719L5 7.86719L8.295 4.57219L9 5.28219L5 9.28219Z" fill="white"/>
</g>
<defs>
<clipPath id="clip0_8_518">
<rect width="12" height="12" fill="white" transform="translate(0 0.782166)"/>
</clipPath>
</defs>
</svg>
